<?xml version="1.0" standalone="no"?>
<!DOCTYPE svg PUBLIC "-//W3C//DTD SVG 20010904//EN"
 "http://www.w3.org/TR/2001/REC-SVG-20010904/DTD/svg10.dtd">
<svg version="1.0" xmlns="http://www.w3.org/2000/svg"
 width="731.000000pt" height="745.000000pt" viewBox="0 0 731.000000 745.000000"
 preserveAspectRatio="xMidYMid meet">

<g transform="translate(0.000000,745.000000) scale(0.100000,-0.100000)"
 stroke="none">
<path d="M1303 6331 c-88 -90 -163 -180 -163 -197 0 -4 -8 -17 -19 -28 -10
-12 -35 -58 -56 -104 -31 -71 -38 -98 -42 -177 -6 -99 8 -204 32 -239 14 -20
5 -35 -73 -124 -13 -15 -31 -39 -40 -54 -24 -42 -30 -34 -20 25 6 28 8 104 6
167 -4 92 -10 131 -33 198 -16 45 -32 82 -36 82 -15 0 -97 -126 -149 -230 -51
-102 -73 -195 -72 -305 0 -103 29 -212 68 -258 l24 -28 -28 -57 c-16 -31 -39
-85 -52 -120 -12 -34 -24 -61 -25 -60 -1 2 -5 43 -9 91 -3 49 -13 120 -23 158
-18 77 -100 234 -122 234 -19 0 -77 -140 -101 -243 -23 -97 -26 -249 -7 -333
16 -65 74 -165 123 -212 l34 -32 -33 -167 -33 -167 -15 107 c-18 120 -70 258
-120 315 -16 17 -29 37 -29 42 0 6 -20 27 -44 47 l-43 37 -13 -27 c-34 -75
-51 -318 -29 -424 27 -129 133 -280 227 -324 l41 -19 -1 -235 c0 -129 -3 -224
-5 -210 -17 90 -70 258 -105 329 -44 87 -160 221 -206 235 -12 4 -22 11 -22
16 0 14 -33 21 -42 8 -14 -22 -9 -212 8 -294 21 -104 38 -153 68 -200 71 -110
141 -172 233 -206 32 -11 63 -26 69 -32 6 -6 17 -78 24 -161 6 -82 16 -168 20
-190 13 -60 5 -53 -25 22 -69 172 -192 317 -327 385 -94 47 -108 51 -108 32 0
-47 25 -172 52 -257 69 -220 209 -353 404 -383 l41 -6 20 -87 c12 -47 30 -117
41 -156 22 -73 22 -93 1 -53 -14 27 -21 35 -92 110 -29 32 -69 69 -88 83 -55
40 -192 103 -249 113 l-52 10 5 -32 c6 -37 84 -238 96 -246 5 -3 16 -21 26
-40 19 -38 35 -57 105 -126 74 -72 204 -124 312 -124 42 0 38 5 103 -150 11
-25 28 -57 39 -72 32 -45 13 -41 -47 11 -32 26 -70 54 -85 62 -15 7 -38 21
-52 30 -39 25 -115 48 -205 60 -110 15 -119 12 -99 -38 19 -44 99 -176 129
-210 81 -94 166 -158 252 -190 35 -13 77 -18 160 -18 l112 0 15 -30 c9 -16 33
-53 54 -81 20 -28 48 -65 60 -83 l24 -32 -39 22 c-135 78 -196 94 -355 94 -69
0 -130 -3 -134 -7 -18 -19 116 -178 223 -264 52 -42 164 -93 232 -106 63 -12
172 -4 230 16 l39 13 91 -90 c50 -50 90 -92 88 -94 -2 -1 -39 9 -83 23 -108
35 -258 37 -362 5 -40 -13 -74 -26 -76 -30 -15 -24 166 -168 285 -226 96 -47
155 -58 269 -53 83 4 106 9 163 37 63 31 67 31 94 16 32 -18 122 -79 139 -93
6 -5 24 -16 40 -25 27 -14 20 -15 -106 -10 -104 4 -151 1 -202 -11 -78 -18
-212 -82 -203 -96 12 -19 121 -85 205 -123 198 -90 391 -90 545 0 33 19 64 41
68 49 11 19 31 18 75 -5 20 -11 84 -38 142 -60 l105 -40 -82 -1 c-104 0 -210
-21 -295 -57 -80 -34 -204 -121 -192 -133 18 -17 202 -79 284 -96 139 -28 330
-10 400 37 14 9 36 20 49 24 13 4 55 38 92 76 l69 68 112 -20 c62 -11 154 -23
205 -28 79 -8 96 -13 120 -36 15 -14 51 -42 78 -61 28 -19 70 -50 95 -69 25
-19 69 -51 98 -71 l52 -36 53 37 c28 20 66 46 82 58 121 89 182 136 197 151
12 12 41 18 100 22 46 3 145 17 221 30 l138 25 62 -65 c69 -71 165 -126 255
-145 114 -24 313 -6 431 39 101 39 136 54 144 60 13 11 -97 88 -180 126 -94
43 -195 64 -311 65 l-87 0 50 18 c28 10 77 28 110 40 33 12 79 31 102 42 l41
20 49 -34 c98 -69 186 -97 307 -97 63 0 185 22 221 39 11 6 49 24 85 40 69 33
122 63 167 97 l27 21 -78 38 c-43 21 -106 44 -140 51 -68 15 -229 17 -293 5
-24 -5 -43 -7 -43 -6 0 2 17 14 37 27 20 12 53 33 73 46 19 13 43 25 53 29 9
3 17 9 17 13 0 4 12 15 26 25 25 16 28 16 97 -16 58 -26 86 -33 161 -37 113
-6 178 7 276 56 118 58 311 215 278 227 -7 2 -33 12 -58 21 -103 37 -263 35
-392 -4 -63 -19 -91 -15 -50 7 9 5 50 43 91 84 l75 73 40 -13 c61 -22 158 -27
228 -13 57 11 183 66 214 93 8 7 30 25 51 41 69 54 203 219 189 233 -13 13
-196 16 -259 3 -71 -13 -146 -37 -163 -51 -6 -5 -32 -20 -58 -34 l-48 -25 66
94 c36 52 66 99 66 105 0 20 27 26 106 23 85 -4 205 19 234 43 8 7 24 15 36
19 30 9 149 123 194 186 47 66 124 210 116 218 -9 8 -191 -16 -240 -33 -48
-16 -161 -78 -186 -101 -8 -7 -32 -28 -52 -45 l-38 -31 26 59 c14 32 36 81 49
108 12 28 26 60 29 73 6 18 14 22 51 22 150 0 308 87 398 219 21 30 54 89 74
131 35 73 75 198 67 211 -6 10 -82 -9 -154 -38 -119 -49 -235 -144 -304 -249
-16 -25 -31 -43 -33 -40 -2 2 3 26 12 52 8 27 26 96 39 154 l23 105 56 11 c70
14 147 43 147 55 0 5 5 9 10 9 23 0 87 53 127 104 84 107 159 327 151 443 l-3
44 -82 -42 c-82 -41 -180 -124 -240 -204 -34 -44 -123 -222 -123 -244 0 -8 -2
-12 -5 -10 -2 3 2 61 10 130 8 68 15 150 16 183 3 69 16 87 81 110 170 62 291
232 318 448 17 136 11 268 -12 268 -13 0 -117 -81 -154 -122 -41 -42 -124
-168 -124 -185 0 -8 -8 -30 -19 -51 -10 -20 -26 -73 -36 -117 -10 -44 -21 -93
-25 -110 -5 -17 -9 69 -9 197 l-1 226 50 31 c49 30 130 106 130 121 0 5 6 15
14 22 83 84 107 396 45 595 -9 29 -12 31 -30 20 -23 -14 -119 -130 -119 -144
0 -5 -8 -18 -18 -29 -32 -36 -81 -192 -91 -294 -8 -76 -15 -66 -32 50 -6 47
-18 105 -25 130 -21 69 -18 82 32 136 128 137 161 331 94 554 -31 105 -79 220
-90 220 -10 0 -46 -52 -72 -105 -49 -97 -70 -176 -76 -283 l-5 -103 -33 78
c-19 43 -43 95 -53 116 -18 34 -19 41 -6 60 8 12 28 56 46 97 28 68 31 85 32
180 0 84 -5 118 -23 170 -38 109 -109 250 -146 291 -9 10 -22 29 -28 42 -27
52 -52 13 -82 -126 -16 -79 -18 -221 -4 -297 6 -29 9 -54 7 -56 -1 -2 -35 39
-75 89 -51 64 -72 98 -68 112 43 188 45 227 17 336 -36 140 -106 252 -253 404
-100 102 -103 100 -102 -83 1 -127 3 -144 32 -230 18 -51 48 -125 68 -163 19
-39 34 -72 32 -74 -2 -2 -37 25 -78 61 -59 50 -77 71 -82 99 -14 66 -71 183
-122 249 -70 91 -210 172 -348 201 -112 24 -109 26 -92 -47 18 -76 81 -211
120 -257 62 -73 102 -105 183 -145 58 -30 175 -66 210 -66 13 0 92 -59 166
-124 l40 -35 -100 49 c-161 80 -304 87 -433 23 -62 -31 -68 -39 -51 -59 14
-17 172 -124 184 -124 4 0 19 -8 33 -19 43 -30 164 -69 254 -82 70 -9 97 -9
171 5 48 9 93 19 101 22 8 3 19 -1 25 -8 5 -7 24 -29 40 -49 35 -42 141 -188
141 -195 0 -2 11 -21 25 -42 13 -20 31 -57 39 -82 9 -27 10 -38 3 -26 -30 46
-158 165 -212 198 -69 42 -160 68 -236 68 -55 0 -177 -26 -194 -41 -12 -12
224 -239 248 -239 4 0 28 -13 55 -29 84 -49 153 -65 291 -67 l124 -1 33 -70
c18 -39 40 -90 49 -114 39 -106 62 -176 69 -204 6 -30 6 -30 -16 6 -46 73 -62
95 -112 147 -28 28 -56 52 -63 52 -7 0 -13 5 -13 11 0 13 -90 53 -159 69 -52
12 -188 9 -211 -5 -10 -6 51 -105 107 -174 122 -148 285 -241 455 -258 52 -5
57 -8 62 -32 5 -25 24 -135 44 -250 l10 -55 -19 25 c-10 13 -19 28 -19 33 0 5
-18 33 -39 61 -46 61 -114 112 -190 144 -58 25 -173 45 -202 36 -16 -6 -16 -8
0 -55 9 -26 22 -54 27 -62 6 -7 24 -40 40 -73 16 -33 34 -64 40 -70 6 -5 22
-26 35 -45 56 -82 177 -166 289 -201 l55 -17 6 -58 c4 -33 7 -97 8 -144 l0
-85 -18 37 c-38 75 -65 114 -110 157 -54 52 -166 108 -233 117 l-48 7 0 -31
c0 -17 5 -34 10 -37 6 -3 10 -14 10 -24 0 -33 50 -170 85 -231 62 -110 149
-196 254 -251 l43 -22 -6 -71 c-16 -175 -19 -196 -26 -196 -4 0 -14 27 -23 60
-17 58 -76 159 -114 192 -45 39 -122 86 -167 101 l-49 17 8 -93 c9 -126 37
-238 79 -324 40 -81 82 -134 160 -201 21 -18 44 -36 51 -40 15 -8 8 -51 -41
-232 l-29 -105 -7 81 c-8 102 -38 194 -83 257 -63 88 -175 171 -198 148 -7 -7
-11 -66 -11 -164 0 -226 35 -331 158 -477 56 -66 63 -78 48 -95 -5 -6 -19 -37
-32 -70 -13 -33 -28 -67 -35 -75 -6 -8 -22 -40 -34 -70 -13 -30 -29 -62 -36
-70 -7 -8 -15 -22 -18 -30 -12 -33 -7 17 8 73 31 119 14 251 -46 368 -26 52
-141 168 -147 149 -2 -8 -10 -28 -17 -45 -36 -82 -55 -291 -36 -400 12 -70 70
-212 102 -250 43 -51 43 -60 -7 -132 -25 -37 -53 -76 -62 -86 -8 -9 -20 -26
-26 -36 -26 -44 -120 -153 -124 -143 -2 7 3 18 11 26 15 16 45 89 71 175 36
122 4 276 -83 395 l-48 67 -16 -25 c-25 -38 -84 -194 -101 -266 -31 -130 -14
-308 40 -424 13 -28 24 -57 24 -64 0 -22 -299 -302 -323 -302 -8 0 26 46 68
90 12 14 33 56 75 155 18 42 22 69 21 156 0 54 -6 102 -14 121 -8 18 -23 53
-33 78 -10 25 -23 53 -30 63 -11 17 -13 16 -35 -12 -58 -74 -69 -90 -93 -136
-14 -26 -30 -53 -34 -59 -5 -6 -16 -31 -25 -56 -48 -133 -59 -270 -31 -404 8
-42 14 -80 12 -85 -4 -11 -164 -121 -176 -121 -5 0 -20 -8 -33 -18 -13 -10
-44 -29 -69 -42 -25 -14 -53 -31 -63 -39 -9 -8 -20 -11 -25 -7 -4 4 5 17 19
29 15 12 35 29 45 38 31 27 78 80 90 103 6 11 23 44 37 71 31 58 51 177 42
250 -10 77 -34 155 -49 155 -30 0 -198 -193 -261 -301 -46 -80 -75 -211 -75
-344 l0 -80 -48 -18 c-26 -10 -55 -23 -66 -29 -24 -13 -213 -78 -246 -85 -19
-4 -13 4 25 31 150 109 208 192 240 350 16 77 14 166 -5 197 -7 11 -12 10 -28
-4 -10 -9 -23 -17 -28 -17 -5 0 -42 -24 -81 -53 -207 -152 -303 -293 -348
-515 -4 -18 -17 -39 -29 -47 -27 -18 -309 -55 -420 -55 l-83 0 -69 50 c-38 28
-79 59 -90 70 -12 11 -25 20 -29 20 -3 0 -22 12 -41 26 l-34 26 -34 -26 c-19
-14 -39 -26 -45 -26 -6 0 -11 -4 -11 -9 0 -5 -21 -23 -48 -40 -26 -17 -65 -45
-87 -62 l-40 -31 -126 6 c-120 6 -267 26 -334 44 -27 8 -31 14 -47 85 -18 77
-84 237 -99 237 -4 0 -11 10 -14 21 -21 65 -346 331 -373 305 -3 -4 -7 -51 -7
-104 0 -101 16 -179 45 -222 10 -14 21 -35 24 -48 10 -32 127 -147 174 -171
41 -21 62 -41 42 -41 -13 0 -222 72 -270 93 -19 8 -49 21 -66 27 l-31 11 -5
122 c-5 104 -10 134 -37 206 -17 47 -49 115 -72 153 -40 66 -207 248 -228 248
-14 0 -41 -92 -48 -167 -7 -77 10 -165 49 -253 22 -50 48 -84 118 -152 49 -48
82 -84 72 -81 -39 15 -192 107 -324 195 l-56 36 14 54 c22 82 28 215 15 294
-20 111 -79 238 -170 366 l-43 61 -24 -39 c-83 -135 -85 -363 -6 -492 15 -24
46 -68 70 -98 23 -30 38 -54 34 -54 -13 0 -187 152 -264 231 -64 65 -80 89
-59 89 9 0 48 113 70 203 14 61 14 173 0 234 -27 112 -51 185 -84 252 l-36 72
-32 -40 c-57 -71 -79 -114 -99 -196 -32 -125 -15 -250 52 -373 33 -60 40 -92
13 -52 -9 14 -23 30 -30 35 -7 6 -23 24 -35 42 -13 18 -50 69 -83 115 -56 77
-75 105 -90 135 -6 10 8 37 72 134 31 47 73 216 73 293 0 73 -23 212 -49 293
l-18 58 -66 -67 c-36 -37 -69 -78 -72 -90 -4 -13 -14 -30 -22 -39 -41 -47 -56
-243 -28 -352 8 -32 15 -61 15 -65 -1 -22 -170 324 -170 348 0 6 17 29 38 53
96 105 155 227 173 354 13 87 5 291 -11 307 -29 29 -181 -108 -228 -205 -32
-64 -51 -156 -52 -239 l-1 -45 -13 30 c-16 37 -66 245 -66 275 0 14 32 53 90
111 50 49 90 94 90 101 0 6 8 21 18 32 38 43 89 225 98 353 l7 92 -29 -8
c-101 -30 -212 -116 -255 -196 -11 -19 -28 -52 -39 -72 -11 -21 -20 -47 -20
-58 0 -11 -4 -26 -9 -34 -5 -8 -11 24 -15 85 -4 55 -9 118 -12 141 l-6 42 50
25 c28 14 54 31 57 37 4 6 19 18 34 27 25 16 87 82 137 149 43 57 136 334 118
352 -10 10 -121 -20 -174 -46 -72 -36 -166 -131 -196 -199 -13 -30 -26 -54
-29 -54 -8 0 -4 217 4 248 6 20 20 29 75 48 171 57 326 218 402 418 22 56 24
70 13 77 -29 18 -169 -11 -252 -53 -69 -34 -161 -135 -195 -212 -7 -16 -15
-27 -17 -24 -6 6 23 181 42 261 17 66 18 67 52 67 31 0 136 26 206 52 61 22
142 82 217 161 43 44 80 88 83 98 4 11 10 19 15 19 4 0 20 21 34 47 19 33 23
50 16 57 -18 18 -187 13 -252 -7 -103 -33 -196 -109 -273 -227 -17 -25 -33
-52 -37 -60 -6 -13 -7 -13 -7 0 -1 20 73 227 109 305 15 33 30 70 34 82 7 21
11 21 94 16 114 -7 227 14 318 60 38 19 80 44 93 56 13 12 27 21 31 21 16 0
192 178 188 191 -11 35 -173 59 -273 40 -105 -20 -180 -64 -282 -168 -51 -51
-93 -91 -93 -88 0 38 198 336 256 386 18 15 26 15 109 -2 113 -23 138 -23 250
1 91 20 262 98 308 140 11 11 26 20 31 20 6 0 31 17 54 38 l44 37 -65 33
c-136 70 -295 63 -454 -20 -28 -15 -54 -32 -58 -38 -3 -5 -11 -10 -17 -10 -18
0 12 29 97 94 68 53 91 65 155 79 176 41 319 149 392 297 35 71 75 206 64 217
-11 11 -146 -21 -229 -55 -72 -29 -100 -48 -156 -101 -88 -85 -125 -143 -163
-255 -24 -72 -38 -97 -66 -121 -20 -16 -51 -45 -70 -63 -19 -18 -37 -31 -39
-28 -3 2 12 40 32 83 20 43 43 92 51 108 25 53 44 168 44 271 0 106 -7 164
-20 164 -5 0 -34 -27 -67 -59z"/>
<path d="M2507 5079 c-79 -8 -247 -57 -303 -87 -17 -9 -54 -29 -82 -44 -27
-15 -56 -33 -63 -40 -8 -8 -29 -24 -47 -37 -28 -20 -93 -83 -165 -162 -13 -15
-35 -44 -47 -65 -13 -22 -27 -41 -30 -44 -16 -13 -86 -154 -117 -235 -47 -124
-57 -160 -89 -315 -27 -127 -28 -150 -28 -390 0 -239 1 -263 27 -385 30 -142
56 -244 67 -260 4 -5 17 -38 29 -73 25 -70 94 -206 121 -237 10 -11 19 -25 21
-32 6 -17 77 -101 139 -163 112 -113 255 -198 415 -246 119 -36 350 -46 454
-19 110 28 195 57 212 71 8 8 21 14 27 14 23 0 189 120 251 181 58 58 148 176
185 244 9 17 21 37 26 45 57 89 141 347 166 508 32 208 29 540 -7 747 -13 72
-75 289 -94 325 -7 14 -21 45 -31 70 -67 163 -258 393 -393 475 -146 89 -284
138 -433 154 -54 6 -105 10 -115 10 -10 -1 -53 -5 -96 -10z m330 -481 c209
-68 341 -241 405 -533 29 -134 37 -548 13 -718 -20 -144 -71 -306 -124 -390
-42 -69 -137 -167 -184 -192 -17 -9 -44 -23 -58 -30 -94 -51 -324 -64 -464
-26 -44 12 -92 31 -107 41 -15 11 -32 20 -38 20 -23 0 -156 147 -188 209 -59
111 -104 270 -122 426 -13 118 -13 390 1 513 13 125 67 336 95 372 6 8 22 37
35 64 29 59 128 163 190 199 151 88 360 105 546 45z"/>
<path d="M3850 4855 l0 -205 670 0 c595 0 670 -2 670 -15 0 -9 -12 -44 -26
-78 -15 -34 -35 -87 -44 -118 -10 -31 -23 -65 -29 -75 -6 -11 -24 -57 -40
-104 -16 -47 -48 -132 -71 -190 -23 -58 -55 -142 -71 -188 -16 -45 -33 -90
-38 -100 -5 -9 -22 -53 -37 -97 -15 -44 -30 -84 -34 -90 -4 -5 -19 -45 -34
-88 -14 -42 -30 -85 -36 -95 -5 -9 -23 -55 -39 -102 -16 -47 -49 -134 -72
-195 -23 -60 -54 -145 -70 -187 -15 -42 -32 -85 -38 -95 -5 -10 -19 -47 -31
-83 -12 -36 -28 -78 -36 -95 -7 -16 -30 -75 -49 -130 -20 -55 -50 -136 -66
-180 -17 -44 -33 -88 -36 -97 -5 -17 10 -18 218 -18 l224 0 29 87 c16 49 33
93 38 99 5 7 22 49 37 95 16 46 48 131 71 189 46 117 95 249 144 385 17 50 37
99 43 110 5 11 21 52 33 90 12 39 26 75 30 80 4 6 19 46 34 90 15 44 33 91 40
105 7 14 24 57 36 95 12 39 26 75 30 80 4 6 20 48 35 95 16 47 32 90 36 95 4
6 23 55 43 110 19 55 50 141 69 190 35 91 89 234 152 400 18 50 50 133 70 185
20 52 49 130 65 173 l29 77 -975 0 -974 0 0 -205z"/>
</g>
</svg>
